<mxfile host="app.diagrams.net" modified="2023-01-19T22:36:45.775Z" agent="5.0 (Windows NT 10.0; Win64; x64) AppleWebKit/537.36 (KHTML, like Gecko) Chrome/108.0.0.0 Safari/537.36 OPR/94.0.0.0" etag="m3peS7XbhvZ5iMnYfgo0" version="20.8.8" type="github">
  <diagram name="Page-1" id="vvQUuf9HjS_9eYrx3XSb">
    <mxGraphModel dx="1073" dy="655" grid="1" gridSize="10" guides="1" tooltips="1" connect="1" arrows="1" fold="1" page="1" pageScale="1" pageWidth="827" pageHeight="1169" math="0" shadow="0">
      <root>
        <mxCell id="0" />
        <mxCell id="1" parent="0" />
        <mxCell id="tczlNCCQ1FMo0oj9KHJR-1" value="STM32" style="shape=process;whiteSpace=wrap;html=1;backgroundOutline=1;" vertex="1" parent="1">
          <mxGeometry x="354" y="420" width="120" height="60" as="geometry" />
        </mxCell>
        <mxCell id="tczlNCCQ1FMo0oj9KHJR-3" value="UART" style="text;html=1;strokeColor=none;fillColor=none;align=center;verticalAlign=middle;whiteSpace=wrap;rounded=0;" vertex="1" parent="1">
          <mxGeometry x="414" y="370" width="60" height="30" as="geometry" />
        </mxCell>
        <mxCell id="tczlNCCQ1FMo0oj9KHJR-5" value="HC-05&lt;br&gt;(Bluetooth)" style="rounded=1;whiteSpace=wrap;html=1;" vertex="1" parent="1">
          <mxGeometry x="354" y="280" width="120" height="60" as="geometry" />
        </mxCell>
        <mxCell id="tczlNCCQ1FMo0oj9KHJR-9" value="Capteurs,&lt;br&gt;Potentiomètres,&lt;br&gt;Boutons" style="ellipse;whiteSpace=wrap;html=1;" vertex="1" parent="1">
          <mxGeometry x="210" y="310" width="120" height="80" as="geometry" />
        </mxCell>
        <mxCell id="tczlNCCQ1FMo0oj9KHJR-13" value="Ecran LCD OLED" style="rounded=1;whiteSpace=wrap;html=1;" vertex="1" parent="1">
          <mxGeometry x="180" y="470" width="120" height="60" as="geometry" />
        </mxCell>
        <mxCell id="tczlNCCQ1FMo0oj9KHJR-14" value="" style="endArrow=classic;html=1;rounded=0;entryX=1;entryY=0.5;entryDx=0;entryDy=0;exitX=0;exitY=1;exitDx=0;exitDy=0;" edge="1" parent="1" source="tczlNCCQ1FMo0oj9KHJR-1" target="tczlNCCQ1FMo0oj9KHJR-13">
          <mxGeometry width="50" height="50" relative="1" as="geometry">
            <mxPoint x="380" y="490" as="sourcePoint" />
            <mxPoint x="430" y="440" as="targetPoint" />
          </mxGeometry>
        </mxCell>
        <mxCell id="tczlNCCQ1FMo0oj9KHJR-15" value="I2C" style="text;html=1;strokeColor=none;fillColor=none;align=center;verticalAlign=middle;whiteSpace=wrap;rounded=0;" vertex="1" parent="1">
          <mxGeometry x="320" y="490" width="60" height="30" as="geometry" />
        </mxCell>
        <mxCell id="tczlNCCQ1FMo0oj9KHJR-16" value="STP16C596&lt;br&gt;LED SHIFT-REGISTER" style="rounded=1;whiteSpace=wrap;html=1;" vertex="1" parent="1">
          <mxGeometry x="354" y="530" width="120" height="60" as="geometry" />
        </mxCell>
        <mxCell id="tczlNCCQ1FMo0oj9KHJR-17" value="" style="endArrow=classic;html=1;rounded=0;entryX=0.5;entryY=0;entryDx=0;entryDy=0;exitX=0.5;exitY=1;exitDx=0;exitDy=0;" edge="1" parent="1" source="tczlNCCQ1FMo0oj9KHJR-1" target="tczlNCCQ1FMo0oj9KHJR-16">
          <mxGeometry width="50" height="50" relative="1" as="geometry">
            <mxPoint x="380" y="470" as="sourcePoint" />
            <mxPoint x="430" y="420" as="targetPoint" />
          </mxGeometry>
        </mxCell>
        <mxCell id="tczlNCCQ1FMo0oj9KHJR-18" value="" style="swimlane;startSize=0;" vertex="1" parent="1">
          <mxGeometry x="170" y="270" width="500" height="330" as="geometry" />
        </mxCell>
        <mxCell id="tczlNCCQ1FMo0oj9KHJR-19" value="Télécommande" style="text;html=1;strokeColor=none;fillColor=none;align=center;verticalAlign=middle;whiteSpace=wrap;rounded=0;" vertex="1" parent="tczlNCCQ1FMo0oj9KHJR-18">
          <mxGeometry x="420" y="10" width="60" height="30" as="geometry" />
        </mxCell>
        <mxCell id="tczlNCCQ1FMo0oj9KHJR-11" value="NRF24L01" style="shape=hexagon;perimeter=hexagonPerimeter2;whiteSpace=wrap;html=1;fixedSize=1;" vertex="1" parent="tczlNCCQ1FMo0oj9KHJR-18">
          <mxGeometry x="370" y="70" width="120" height="80" as="geometry" />
        </mxCell>
        <mxCell id="tczlNCCQ1FMo0oj9KHJR-21" value="SIM800L&amp;nbsp;&lt;br&gt;2G Module" style="rounded=1;whiteSpace=wrap;html=1;" vertex="1" parent="tczlNCCQ1FMo0oj9KHJR-18">
          <mxGeometry x="360" y="220" width="120" height="60" as="geometry" />
        </mxCell>
        <mxCell id="tczlNCCQ1FMo0oj9KHJR-38" value="SPI" style="text;html=1;strokeColor=none;fillColor=none;align=center;verticalAlign=middle;whiteSpace=wrap;rounded=0;" vertex="1" parent="tczlNCCQ1FMo0oj9KHJR-18">
          <mxGeometry x="330" y="150" width="60" height="30" as="geometry" />
        </mxCell>
        <mxCell id="tczlNCCQ1FMo0oj9KHJR-23" value="" style="swimlane;startSize=0;" vertex="1" parent="1">
          <mxGeometry x="770" y="270" width="310" height="330" as="geometry">
            <mxRectangle x="770" y="270" width="50" height="40" as="alternateBounds" />
          </mxGeometry>
        </mxCell>
        <mxCell id="tczlNCCQ1FMo0oj9KHJR-25" value="NRF24L01" style="shape=hexagon;perimeter=hexagonPerimeter2;whiteSpace=wrap;html=1;fixedSize=1;" vertex="1" parent="tczlNCCQ1FMo0oj9KHJR-23">
          <mxGeometry x="20" y="60" width="120" height="80" as="geometry" />
        </mxCell>
        <mxCell id="tczlNCCQ1FMo0oj9KHJR-27" value="STM32" style="shape=process;whiteSpace=wrap;html=1;backgroundOutline=1;" vertex="1" parent="tczlNCCQ1FMo0oj9KHJR-23">
          <mxGeometry x="170" y="140" width="120" height="60" as="geometry" />
        </mxCell>
        <mxCell id="tczlNCCQ1FMo0oj9KHJR-28" value="I2C évoutif" style="rounded=1;whiteSpace=wrap;html=1;" vertex="1" parent="tczlNCCQ1FMo0oj9KHJR-23">
          <mxGeometry x="170" y="20" width="120" height="60" as="geometry" />
        </mxCell>
        <mxCell id="tczlNCCQ1FMo0oj9KHJR-29" value="HMC5883L&lt;br&gt;" style="rounded=1;whiteSpace=wrap;html=1;" vertex="1" parent="tczlNCCQ1FMo0oj9KHJR-23">
          <mxGeometry x="20" y="200" width="120" height="60" as="geometry" />
        </mxCell>
        <mxCell id="tczlNCCQ1FMo0oj9KHJR-30" value="Capteurs" style="ellipse;whiteSpace=wrap;html=1;" vertex="1" parent="tczlNCCQ1FMo0oj9KHJR-23">
          <mxGeometry x="170" y="240" width="120" height="80" as="geometry" />
        </mxCell>
        <mxCell id="tczlNCCQ1FMo0oj9KHJR-35" value="I2C" style="text;html=1;strokeColor=none;fillColor=none;align=center;verticalAlign=middle;whiteSpace=wrap;rounded=0;" vertex="1" parent="tczlNCCQ1FMo0oj9KHJR-23">
          <mxGeometry x="240" y="80" width="60" height="30" as="geometry" />
        </mxCell>
        <mxCell id="tczlNCCQ1FMo0oj9KHJR-36" value="I2C" style="text;html=1;strokeColor=none;fillColor=none;align=center;verticalAlign=middle;whiteSpace=wrap;rounded=0;" vertex="1" parent="tczlNCCQ1FMo0oj9KHJR-23">
          <mxGeometry x="125" y="210" width="60" height="30" as="geometry" />
        </mxCell>
        <mxCell id="tczlNCCQ1FMo0oj9KHJR-40" value="SPI" style="text;html=1;strokeColor=none;fillColor=none;align=center;verticalAlign=middle;whiteSpace=wrap;rounded=0;" vertex="1" parent="tczlNCCQ1FMo0oj9KHJR-23">
          <mxGeometry x="80" y="140" width="60" height="30" as="geometry" />
        </mxCell>
        <mxCell id="tczlNCCQ1FMo0oj9KHJR-41" value="" style="endArrow=classic;startArrow=classic;html=1;rounded=0;exitX=1;exitY=0.75;exitDx=0;exitDy=0;" edge="1" parent="tczlNCCQ1FMo0oj9KHJR-23" source="tczlNCCQ1FMo0oj9KHJR-25">
          <mxGeometry width="50" height="50" relative="1" as="geometry">
            <mxPoint x="-60" y="190" as="sourcePoint" />
            <mxPoint x="170" y="140" as="targetPoint" />
          </mxGeometry>
        </mxCell>
        <mxCell id="tczlNCCQ1FMo0oj9KHJR-42" value="" style="endArrow=classic;startArrow=classic;html=1;rounded=0;exitX=0.5;exitY=0;exitDx=0;exitDy=0;entryX=0.5;entryY=1;entryDx=0;entryDy=0;" edge="1" parent="tczlNCCQ1FMo0oj9KHJR-23" source="tczlNCCQ1FMo0oj9KHJR-27" target="tczlNCCQ1FMo0oj9KHJR-28">
          <mxGeometry width="50" height="50" relative="1" as="geometry">
            <mxPoint x="-60" y="190" as="sourcePoint" />
            <mxPoint x="-10" y="140" as="targetPoint" />
          </mxGeometry>
        </mxCell>
        <mxCell id="tczlNCCQ1FMo0oj9KHJR-43" value="" style="endArrow=classic;startArrow=classic;html=1;rounded=0;exitX=0;exitY=0.75;exitDx=0;exitDy=0;entryX=1;entryY=0;entryDx=0;entryDy=0;" edge="1" parent="tczlNCCQ1FMo0oj9KHJR-23" source="tczlNCCQ1FMo0oj9KHJR-27" target="tczlNCCQ1FMo0oj9KHJR-29">
          <mxGeometry width="50" height="50" relative="1" as="geometry">
            <mxPoint x="-60" y="190" as="sourcePoint" />
            <mxPoint x="-10" y="140" as="targetPoint" />
          </mxGeometry>
        </mxCell>
        <mxCell id="tczlNCCQ1FMo0oj9KHJR-44" value="" style="endArrow=classic;startArrow=classic;html=1;rounded=0;exitX=0.5;exitY=0;exitDx=0;exitDy=0;entryX=0.5;entryY=1;entryDx=0;entryDy=0;" edge="1" parent="tczlNCCQ1FMo0oj9KHJR-23" source="tczlNCCQ1FMo0oj9KHJR-30" target="tczlNCCQ1FMo0oj9KHJR-27">
          <mxGeometry width="50" height="50" relative="1" as="geometry">
            <mxPoint x="-60" y="190" as="sourcePoint" />
            <mxPoint x="-10" y="140" as="targetPoint" />
          </mxGeometry>
        </mxCell>
        <mxCell id="tczlNCCQ1FMo0oj9KHJR-45" value="Voiture" style="text;html=1;strokeColor=none;fillColor=none;align=center;verticalAlign=middle;whiteSpace=wrap;rounded=0;" vertex="1" parent="tczlNCCQ1FMo0oj9KHJR-23">
          <mxGeometry x="10" y="20" width="60" height="30" as="geometry" />
        </mxCell>
        <mxCell id="tczlNCCQ1FMo0oj9KHJR-24" value="" style="shape=mxgraph.arrows2.wedgeArrowDashed2;html=1;bendable=0;startWidth=50;stepSize=15;rounded=0;" edge="1" parent="1">
          <mxGeometry width="100" height="100" relative="1" as="geometry">
            <mxPoint x="680" y="502" as="sourcePoint" />
            <mxPoint x="760" y="502" as="targetPoint" />
          </mxGeometry>
        </mxCell>
        <mxCell id="tczlNCCQ1FMo0oj9KHJR-26" value="" style="shape=mxgraph.arrows2.wedgeArrowDashed2;html=1;bendable=0;startWidth=50;stepSize=15;rounded=0;entryX=1.02;entryY=0.333;entryDx=0;entryDy=0;entryPerimeter=0;" edge="1" parent="1" target="tczlNCCQ1FMo0oj9KHJR-18">
          <mxGeometry width="100" height="100" relative="1" as="geometry">
            <mxPoint x="770" y="380" as="sourcePoint" />
            <mxPoint x="690" y="380" as="targetPoint" />
          </mxGeometry>
        </mxCell>
        <mxCell id="tczlNCCQ1FMo0oj9KHJR-31" value="" style="endArrow=classic;startArrow=classic;html=1;rounded=0;exitX=0.5;exitY=0;exitDx=0;exitDy=0;entryX=0.5;entryY=1;entryDx=0;entryDy=0;" edge="1" parent="1" source="tczlNCCQ1FMo0oj9KHJR-1" target="tczlNCCQ1FMo0oj9KHJR-5">
          <mxGeometry width="50" height="50" relative="1" as="geometry">
            <mxPoint x="710" y="460" as="sourcePoint" />
            <mxPoint x="760" y="410" as="targetPoint" />
          </mxGeometry>
        </mxCell>
        <mxCell id="tczlNCCQ1FMo0oj9KHJR-32" value="" style="endArrow=classic;startArrow=classic;html=1;rounded=0;exitX=1;exitY=0.5;exitDx=0;exitDy=0;entryX=0.067;entryY=0.825;entryDx=0;entryDy=0;entryPerimeter=0;" edge="1" parent="1" source="tczlNCCQ1FMo0oj9KHJR-1" target="tczlNCCQ1FMo0oj9KHJR-11">
          <mxGeometry width="50" height="50" relative="1" as="geometry">
            <mxPoint x="710" y="460" as="sourcePoint" />
            <mxPoint x="760" y="410" as="targetPoint" />
          </mxGeometry>
        </mxCell>
        <mxCell id="tczlNCCQ1FMo0oj9KHJR-33" value="" style="endArrow=classic;startArrow=classic;html=1;rounded=0;exitX=1;exitY=1;exitDx=0;exitDy=0;entryX=0;entryY=0.25;entryDx=0;entryDy=0;" edge="1" parent="1" source="tczlNCCQ1FMo0oj9KHJR-1" target="tczlNCCQ1FMo0oj9KHJR-21">
          <mxGeometry width="50" height="50" relative="1" as="geometry">
            <mxPoint x="710" y="460" as="sourcePoint" />
            <mxPoint x="760" y="410" as="targetPoint" />
          </mxGeometry>
        </mxCell>
        <mxCell id="tczlNCCQ1FMo0oj9KHJR-34" value="" style="endArrow=classic;startArrow=classic;html=1;rounded=0;exitX=0;exitY=0;exitDx=0;exitDy=0;entryX=1;entryY=1;entryDx=0;entryDy=0;" edge="1" parent="1" source="tczlNCCQ1FMo0oj9KHJR-1" target="tczlNCCQ1FMo0oj9KHJR-9">
          <mxGeometry width="50" height="50" relative="1" as="geometry">
            <mxPoint x="710" y="460" as="sourcePoint" />
            <mxPoint x="760" y="410" as="targetPoint" />
          </mxGeometry>
        </mxCell>
      </root>
    </mxGraphModel>
  </diagram>
</mxfile>
